nColumns=28
nRows=12
DataType=double
version=3
OpenSimVersion=4.3
endheader
time	ground_force_1_vx	ground_force_1_vy	ground_force_1_vz	ground_force_1_px	ground_force_1_py	ground_force_1_pz	ground_moment_1_mx	ground_moment_1_my	ground_moment_1_mz	ground_force_2_vx	ground_force_2_vy	ground_force_2_vz	ground_force_2_px	ground_force_2_py	ground_force_2_pz	ground_moment_2_mx	ground_moment_2_my	ground_moment_2_mz	ground_force_3_vx	ground_force_3_vy	ground_force_3_vz	ground_force_3_px	ground_force_3_py	ground_force_3_pz	ground_moment_3_mx	ground_moment_3_my	ground_moment_3_mz
0.40000000	0.00000000	0.00000000	0.00000000	0.30000000	0.00000000	0.20000000	0.00000000	0.00000000	0.00000000	6.12786490	518.94462380	-29.88895236	-0.20992900	0.00000000	0.23711600	0.00000000	-1.75341809	0.00000000	0.00000000	0.00000000	0.00000000	0.90000000	0.00000000	0.20000000	0.00000000	0.00000000	0.00000000
0.40833333	0.00000000	0.00000000	0.00000000	0.30000000	0.00000000	0.20000000	0.00000000	0.00000000	0.00000000	7.81941172	512.33394295	-30.17323184	-0.20985700	0.00000000	0.23610400	0.00000000	-1.96688148	0.00000000	0.00000000	0.00000000	0.00000000	0.90000000	0.00000000	0.20000000	0.00000000	0.00000000	0.00000000
0.41666667	0.00000000	0.00000000	0.00000000	0.30000000	0.00000000	0.20000000	0.00000000	0.00000000	0.00000000	9.18558696	507.29009164	-30.50278746	-0.20830300	0.00000000	0.23682300	0.00000000	-2.15917332	0.00000000	0.00000000	0.00000000	0.00000000	0.90000000	0.00000000	0.20000000	0.00000000	0.00000000	0.00000000
0.42500000	0.00000000	0.00000000	0.00000000	0.30000000	0.00000000	0.20000000	0.00000000	0.00000000	0.00000000	10.41704334	503.43294572	-30.73825710	-0.20727300	0.00000000	0.23684800	0.00000000	-2.32040784	0.00000000	0.00000000	0.00000000	0.00000000	0.90000000	0.00000000	0.20000000	0.00000000	0.00000000	0.00000000
0.43333333	0.00000000	0.00000000	0.00000000	0.30000000	0.00000000	0.20000000	0.00000000	0.00000000	0.00000000	11.68620028	500.61522603	-30.82921207	-0.20817100	0.00000000	0.23829200	0.00000000	-2.45540509	0.00000000	0.00000000	0.00000000	0.00000000	0.90000000	0.00000000	0.20000000	0.00000000	0.00000000	0.00000000
0.44166667	0.00000000	0.00000000	0.00000000	0.30000000	0.00000000	0.20000000	0.00000000	0.00000000	0.00000000	13.08048583	498.99952476	-30.81650324	-0.20572500	0.00000000	0.23824600	0.00000000	-2.58162197	0.00000000	0.00000000	0.00000000	0.00000000	0.90000000	0.00000000	0.20000000	0.00000000	0.00000000	0.00000000
0.45000000	0.00000000	0.00000000	0.00000000	0.30000000	0.00000000	0.20000000	0.00000000	0.00000000	0.00000000	14.60464278	498.87368269	-30.78474408	-0.20537900	0.00000000	0.23887500	0.00000000	-2.71688220	0.00000000	0.00000000	0.00000000	0.00000000	0.90000000	0.00000000	0.20000000	0.00000000	0.00000000	0.00000000
0.45833333	0.00000000	0.00000000	0.00000000	0.30000000	0.00000000	0.20000000	0.00000000	0.00000000	0.00000000	16.23409341	500.40987918	-30.81255485	-0.20449600	0.00000000	0.23791000	0.00000000	-2.86812431	0.00000000	0.00000000	0.00000000	0.00000000	0.90000000	0.00000000	0.20000000	0.00000000	0.00000000	0.00000000
0.46666667	0.00000000	0.00000000	0.00000000	0.30000000	0.00000000	0.20000000	0.00000000	0.00000000	0.00000000	17.97711221	503.56694771	-30.95006726	-0.20447900	0.00000000	0.23995100	0.00000000	-3.03007358	0.00000000	0.00000000	0.00000000	0.00000000	0.90000000	0.00000000	0.20000000	0.00000000	0.00000000	0.00000000
0.47500000	0.00000000	0.00000000	0.00000000	0.30000000	0.00000000	0.20000000	0.00000000	0.00000000	0.00000000	19.90367811	508.19388338	-31.20688301	-0.20431600	0.00000000	0.23836900	0.00000000	-3.18843056	0.00000000	0.00000000	0.00000000	0.00000000	0.90000000	0.00000000	0.20000000	0.00000000	0.00000000	0.00000000
0.48333333	0.00000000	0.00000000	0.00000000	0.30000000	0.00000000	0.20000000	0.00000000	0.00000000	0.00000000	22.13978698	514.21871350	-31.54046859	-0.20428600	0.00000000	0.23952300	0.00000000	-3.32408245	0.00000000	0.00000000	0.00000000	0.00000000	0.90000000	0.00000000	0.20000000	0.00000000	0.00000000	0.00000000
0.49166667	0.00000000	0.00000000	0.00000000	0.30000000	0.00000000	0.20000000	0.00000000	0.00000000	0.00000000	24.85316710	521.77487513	-31.87466896	-0.20526300	0.00000000	0.24046700	0.00000000	-3.42377955	0.00000000	0.00000000	0.00000000	0.00000000	0.90000000	0.00000000	0.20000000	0.00000000	0.00000000	0.00000000
